<?xml version="1.0" encoding="UTF-8" standalone="no"?>
<svg viewBox="0 0 442 151" version="1.1" xmlns="http://www.w3.org/2000/svg" xmlns:xlink="http://www.w3.org/1999/xlink" xmlns:sketch="http://www.bohemiancoding.com/sketch/ns">
    <title>lunch-bus_logo</title>
    <description>Created with Sketch (http://www.bohemiancoding.com/sketch)</description>
    <defs></defs>
    <g id="Page 1" stroke="none" stroke-width="1" fill="none" fill-rule="evenodd" sketch:type="MSPage">
        <g id="Logo" sketch:type="MSLayerGroup" transform="translate(-39.000000, -132.000000)">
            <g id="Path + Shape copy" transform="translate(307.500000, 210.000000) rotate(-315.000000) translate(-307.500000, -210.000000) translate(210.000000, 109.000000)" fill="#FFFCF4" sketch:type="MSShapeGroup">
                <path d="M81.6202904,105.117993 C78.4035411,105.126284 69.4973739,106.032031 64.8028268,109.570041 C60.1144977,113.101832 58.1413371,115.52683 52.199056,115.327856 C46.2588477,115.130955 0.202541577,115.87918 0.202542726,111.984675 C0.202544709,108.090171 48.4745081,112.266555 48.4620722,108.09017 C48.445491,103.90964 0.646087669,109.335831 0.424316032,104.952182 C0.202542728,100.568532 48.9449991,105.669318 48.9325632,100.833831 C48.9159821,96.2263347 0.596344247,102.330282 0.399444259,97.2709491 C0.202542728,92.211616 48.4226919,97.9880852 48.4123287,93.8137727 C48.3957475,89.6332423 0.0574559546,93.9319137 0.130000056,90.2363828 C0.202542723,86.5408519 46.1614332,86.7833517 52.1016416,86.5408519 C58.04185,86.3004248 60.0315918,88.7129867 64.7447927,92.211616 C69.4579936,95.718536 78.3724514,96.5703942 81.593346,96.553813 C82.0587039,96.5526144 84.4326439,96.3978836 88.1760427,96.1372835 L88.1760427,90.5811982 C88.1760427,90.0464513 88.3369605,89.56169 88.6109548,89.1531618 L88.6109548,6.26883607 C88.7916482,6.4372061 89.1879195,6.63162087 89.7168844,6.88139803 C89.191535,6.35354771 88.8048403,6.01773313 88.6109548,5.87958972 L88.6109548,0.104681575 C88.6109548,0.104681575 106.442352,13.1520453 106.442352,46.3503374 L106.442352,85.6291359 C104.900331,86.2120649 103.897571,87.6270775 103.255258,89.3897625 C103.594929,89.7668957 103.832983,90.1948657 103.833024,90.6536836 L103.831384,95.0243884 C133.149539,92.9300595 181.544513,89.509609 186.778145,90.2653998 C194.206514,91.3369587 194.484249,100.568532 194.484249,100.568532 C194.488395,100.342613 194.272839,109.572113 186.84447,110.695488 C181.617105,111.489592 133.155442,108.392373 103.827079,106.495536 C103.816129,135.672614 103.793882,194.950944 103.793882,194.962419 C103.793882,198.718755 100.31415,201.727478 96.0214225,201.727478 C91.7285499,201.727478 88.1760427,198.682513 88.1760427,194.926177 L88.1760427,105.488678 C84.4480561,105.254326 82.0844111,105.1162 81.6202904,105.117993 Z M81.6202904,105.117993" id="Path"></path>
            </g>
            <path d="M51.6,188.748706 L39.84,188.748706 L39.84,233.988706 L65.7,233.988706 L65.7,224.028706 L51.6,224.028706 L51.6,188.748706 Z M97.02,188.748706 L97.02,212.568706 C97.02,218.448706 96.6,224.868706 89.04,224.868706 C81.48,224.868706 81.06,218.448706 81.06,212.568706 L81.06,188.748706 L69.3,188.748706 L69.3,214.188706 C69.3,220.008706 69.54,225.768706 74.04,230.148706 C77.82,233.868706 83.76,235.188706 89.04,235.188706 C94.32,235.188706 100.26,233.868706 104.04,230.148706 C108.54,225.768706 108.78,220.008706 108.78,214.188706 L108.78,188.748706 L97.02,188.748706 Z M116.22,233.988706 L127.98,233.988706 L127.98,206.268706 L128.1,206.268706 L149.64,233.988706 L161.4,233.988706 L161.4,188.748706 L149.64,188.748706 L149.64,216.408706 L149.52,216.408706 L127.98,188.748706 L116.22,188.748706 L116.22,233.988706 Z M201.42,189.828706 C197.94,188.388706 194.46,187.548706 190.68,187.548706 C184.32,187.548706 177.9,190.308706 173.46,194.868706 C169.14,199.308706 166.8,205.248706 166.8,211.428706 C166.8,218.148706 169.08,224.028706 174.06,228.528706 C178.74,232.788706 184.74,235.188706 191.04,235.188706 C194.7,235.188706 197.52,234.288706 201.42,233.088706 L201.42,218.988706 C198.96,221.928706 195.12,223.788706 191.28,223.788706 C183.96,223.788706 179.04,218.628706 179.04,211.488706 C179.04,204.468706 183.9,198.948706 191.1,198.948706 C195.12,198.948706 199.02,200.688706 201.42,203.928706 C201.42,203.928706 199.02,200.688706 201.42,203.928706 L201.42,189.828706 Z M220.44,206.208706 L220.44,188.748706 L208.68,188.748706 L208.68,233.988706 L220.44,233.988706 L220.44,215.448706 L237.42,215.448706 L237.42,233.988706 L249.18,233.988706 L249.18,188.748706 L237.42,188.748706 L237.42,206.208706 L220.44,206.208706 Z M379.96,233.988706 C388.24,233.988706 396.34,230.868706 396.34,221.388706 C396.34,215.088706 393.58,210.708706 387.1,209.868706 L387.1,209.748706 C390.76,207.888706 392.08,204.588706 392.08,200.508706 C392.08,191.868706 386.68,188.748706 378.64,188.748706 L361.84,188.748706 L361.84,233.988706 L379.96,233.988706 Z M373.6,215.268706 L374.8,215.268706 C378.64,215.268706 384.46,214.728706 384.46,220.188706 C384.46,225.168706 378.58,224.988706 375.1,224.988706 L373.6,224.988706 L373.6,215.268706 Z M373.6,197.748706 L374.44,197.748706 C377.62,197.748706 381.28,197.988706 381.28,202.128706 C381.28,205.968706 378.04,206.508706 374.92,206.508706 L373.6,206.508706 L373.6,197.748706 Z M429.94,188.748706 L429.94,212.568706 C429.94,218.448706 429.52,224.868706 421.96,224.868706 C414.4,224.868706 413.98,218.448706 413.98,212.568706 L413.98,188.748706 L402.22,188.748706 L402.22,214.188706 C402.22,220.008706 402.46,225.768706 406.96,230.148706 C410.74,233.868706 416.68,235.188706 421.96,235.188706 C427.24,235.188706 433.18,233.868706 436.96,230.148706 C441.46,225.768706 441.7,220.008706 441.7,214.188706 L441.7,188.748706 L429.94,188.748706 Z M478.66,191.268706 C474.64,188.988706 469.06,187.548706 464.5,187.548706 C455.44,187.548706 448.9,193.548706 448.9,202.728706 C448.9,211.488706 453.76,213.408706 461.14,215.508706 C463.66,216.228706 468.28,217.368706 468.28,220.668706 C468.28,223.848706 465.34,225.228706 462.58,225.228706 C458.56,225.228706 455.08,223.128706 452.14,220.548706 L447.1,230.028706 C451.72,233.268706 457.3,235.188706 463,235.188706 C467.56,235.188706 472.3,233.928706 475.84,230.928706 C479.44,227.868706 480.52,223.248706 480.52,218.748706 C480.52,211.428706 475.66,208.248706 469.36,206.388706 L466.36,205.488706 C464.32,204.828706 461.14,203.808706 461.14,201.168706 C461.14,198.648706 464.02,197.388706 466.18,197.388706 C469.06,197.388706 471.82,198.588706 473.98,200.388706 C473.98,200.388706 471.82,198.588706 473.98,200.388706 L478.66,191.268706 Z M478.66,191.268706" id="LUNCH" fill="#3F3811" sketch:type="MSShapeGroup"></path>
        </g>
    </g>
</svg>
